<svg width="250" height="250" viewBox="0 0 250 250" xmlns="http://www.w3.org/2000/svg">
  <g fill="none" stroke="#70b8f4" stroke-width="2" stroke-linecap="round" stroke-linejoin="round" opacity="0.32">

    <!-- hammer -->
    <path d="M28 42 L46 24 L56 34 L38 52 Z"/>
    <path d="M43 39 L68 64"/>

    <!-- screwdriver -->
    <path d="M142 28 L170 56"/>
    <path d="M137 33 L147 23 L177 53 L167 63 Z"/>

    <!-- saw -->
    <path d="M34 150 L88 132 L98 150 L44 168 Z"/>
    <path d="M50 165 L55 174 L62 164 L69 173 L76 162"/>

    <!-- tractor -->
    <rect x="160" y="146" width="42" height="22" rx="5"/>
    <path d="M172 146 L184 126 L202 146"/>
    <circle cx="170" cy="178" r="9"/>
    <circle cx="202" cy="178" r="13"/>
    <circle cx="170" cy="178" r="3"/>
    <circle cx="202" cy="178" r="5"/>

    <!-- wrench -->
    <circle cx="205" cy="48" r="9"/>
    <path d="M211 55 L230 74"/>
    <path d="M225 79 L234 70"/>

    <!-- helmet -->
    <path d="M92 210 A22 22 0 0 1 136 210"/>
    <path d="M88 210 H140"/>
    <path d="M114 188 V210"/>

    <!-- small tools / details -->
    <path d="M214 214 L232 232"/>
    <path d="M232 214 L214 232"/>
    <circle cx="48" cy="216" r="6"/>
    <path d="M48 222 L36 236"/>
    <path d="M108 78 L126 96"/>
    <path d="M126 78 L108 96"/>
  </g>
</svg>